<svg viewBox="0 0 120 32" xmlns="http://www.w3.org/2000/svg">
  <path fill="currentColor" d="M16.5 24c-4.4 0-8-3.6-8-8s3.6-8 8-8c2.2 0 4.2.9 5.7 2.3l2.8-2.8C22.6 5.1 19.7 4 16.5 4 9.6 4 4 9.6 4 16.5S9.6 29 16.5 29c3.2 0 6.1-1.1 8.5-3.5l-2.8-2.8C20.7 23.1 18.7 24 16.5 24z"/>
  <path fill="currentColor" d="M35.8 12.5c-2.8 0-4.8 2.2-4.8 5.2 0 3 2 5.2 4.8 5.2s4.8-2.2 4.8-5.2c0-3-2-5.2-4.8-5.2zm0 7.8c-1.4 0-2.3-1.1-2.3-2.6s.9-2.6 2.3-2.6 2.3 1.1 2.3 2.6-.9 2.6-2.3 2.6z"/>
  <path fill="currentColor" d="M48.2 12.5c-1.4 0-2.6.6-3.4 1.6v-1.4h-2.4v10h2.5v-5.8c0-1.6 1-2.7 2.4-2.7 1.3 0 2.2 1 2.2 2.4v6.1h2.5v-6.6c0-2.8-1.8-4.6-4.3-4.6h.5z"/>
  <path fill="currentColor" d="M58.7 12.5c-1.4 0-2.6.6-3.4 1.6v-1.4h-2.4v10h2.5v-5.8c0-1.6 1-2.7 2.4-2.7 1.3 0 2.2 1 2.2 2.4v6.1h2.5v-6.6c0-2.8-1.8-4.6-4.3-4.6h.5z"/>
  <path fill="currentColor" d="M69.2 12.5c-2.8 0-4.8 2.2-4.8 5.2s2 5.2 4.8 5.2c1.8 0 3.3-.9 4.1-2.3l-2.1-1.2c-.4.7-1.2 1.1-2 1.1-1.2 0-2.1-.8-2.3-2h6.8c0-.3.1-.6.1-.8 0-3-2-5.2-4.6-5.2zm-2.2 4.2c.2-1.2 1.1-2 2.2-2s2 .8 2.2 2h-4.4z"/>
  <path fill="currentColor" d="M81.7 12.5c-1.4 0-2.6.6-3.4 1.6v-1.4h-2.4v10h2.5v-5.8c0-1.6 1-2.7 2.4-2.7 1.3 0 2.2 1 2.2 2.4v6.1h2.5v-6.6c0-2.8-1.8-4.6-4.3-4.6h.5z"/>
  <path fill="currentColor" d="M92.2 12.5c-1.4 0-2.6.6-3.4 1.6v-1.4h-2.4v13.8h2.5v-4.8c.8 1 2 1.6 3.4 1.6 2.8 0 4.8-2.2 4.8-5.2s-2-5.6-4.9-5.6zm-.3 8.8c-1.4 0-2.3-1.1-2.3-2.6s.9-2.6 2.3-2.6 2.3 1.1 2.3 2.6-.9 2.6-2.3 2.6z"/>
  <path fill="currentColor" d="M105.7 12.5c-2.8 0-4.8 2.2-4.8 5.2s2 5.2 4.8 5.2c1.8 0 3.3-.9 4.1-2.3l-2.1-1.2c-.4.7-1.2 1.1-2 1.1-1.2 0-2.1-.8-2.3-2h6.8c0-.3.1-.6.1-.8 0-3-2-5.2-4.6-5.2zm-2.2 4.2c.2-1.2 1.1-2 2.2-2s2 .8 2.2 2h-4.4z"/>
  <path fill="currentColor" d="M117.5 12.5c-1.8 0-3.3.9-4.1 2.3l2.1 1.2c.4-.7 1.2-1.1 2-1.1 1.2 0 2.1.8 2.3 2h-6.8c0 .3-.1.6-.1.8 0 3 2 5.2 4.6 5.2 2.8 0 4.8-2.2 4.8-5.2s-2-5.2-4.8-5.2zm2.2 4.2c-.2 1.2-1.1 2-2.2 2s-2-.8-2.2-2h4.4z"/>
</svg>
