<svg viewBox="0 0 80 32" xmlns="http://www.w3.org/2000/svg">
  <path fill="currentColor" d="M8.5 8.5h12.8v3.2H12v3.2h8.5v3.2H12v3.2h9.5v3.2H8.5V8.5z"/>
  <path fill="currentColor" d="M26.2 11.7h-3.8V8.5h11.1v3.2h-3.8v12.6h-3.5V11.7z"/>
  <path fill="currentColor" d="M39.8 8.2c4.4 0 7.2 2.8 7.2 7.9v.3c0 5.1-2.8 7.9-7.2 7.9s-7.2-2.8-7.2-7.9v-.3c0-5.1 2.8-7.9 7.2-7.9zm3.8 8.2v-.3c0-2.5-1.5-4.4-3.8-4.4s-3.8 1.9-3.8 4.4v.3c0 2.5 1.5 4.4 3.8 4.4s3.8-1.9 3.8-4.4z"/>
  <path fill="currentColor" d="M52.5 8.2c4.4 0 7.2 2.8 7.2 7.9v.3c0 5.1-2.8 7.9-7.2 7.9s-7.2-2.8-7.2-7.9v-.3c0-5.1 2.8-7.9 7.2-7.9zm3.8 8.2v-.3c0-2.5-1.5-4.4-3.8-4.4s-3.8 1.9-3.8 4.4v.3c0 2.5 1.5 4.4 3.8 4.4s3.8-1.9 3.8-4.4z"/>
  <path fill="currentColor" d="M65.2 8.2c4.2 0 6.8 2.5 6.8 6.4 0 4.4-3.1 6.4-7.2 6.4h-2.3v3.3h-3.5V8.5h6.2zm3.2 6.4c0-2.1-1.4-3.2-3.5-3.2h-2.4v6.4h2.4c2.1 0 3.5-1.1 3.5-3.2z"/>
  <path fill="currentColor" d="M78.5 8.5h3.5v15.8h-3.5V8.5z"/>
</svg>
