<svg viewBox="0 0 80 32" xmlns="http://www.w3.org/2000/svg">
  <path fill="currentColor" d="M8.2 4.8h8.4c4.8 0 7.6 2.3 7.6 6.1 0 4.4-3.4 7.1-8.6 7.1h-4.3l-.9 5.2H7.3l.9-18.4zm7.1 10.2c2.4 0 4.1-1.2 4.1-3.2 0-1.5-1.1-2.4-3.1-2.4h-3.2l-.6 5.6h2.8z"/>
  <path fill="currentColor" d="M25.8 13.2c0-1.2.9-2.1 2.1-2.1s2.1.9 2.1 2.1-.9 2.1-2.1 2.1-2.1-.9-2.1-2.1zm.3 2.8h2.8l-1.4 7.2h-2.8l1.4-7.2z"/>
  <path fill="currentColor" d="M32.5 16h2.8l.2-1.2c.4-.8 1.3-1.4 2.4-1.4 1.8 0 2.8 1.1 2.8 2.8 0 .4-.1.8-.2 1.2h-2.9c.1-.3.1-.6.1-.8 0-.6-.3-1-.9-1-.8 0-1.4.6-1.6 1.4l-.9 4.8h-2.8l1.9-9.6h2.8l-.7 3.8z"/>
  <path fill="currentColor" d="M43.2 16h2.8l.2-1.2c.4-.8 1.3-1.4 2.4-1.4 1.8 0 2.8 1.1 2.8 2.8 0 .4-.1.8-.2 1.2h-2.9c.1-.3.1-.6.1-.8 0-.6-.3-1-.9-1-.8 0-1.4.6-1.6 1.4l-.9 4.8h-2.8l1.9-9.6h2.8l-.7 3.8z"/>
  <path fill="currentColor" d="M53.8 13.2c0-1.2.9-2.1 2.1-2.1s2.1.9 2.1 2.1-.9 2.1-2.1 2.1-2.1-.9-2.1-2.1zm.3 2.8h2.8l-1.4 7.2h-2.8l1.4-7.2z"/>
  <path fill="currentColor" d="M60.5 16h2.8l.2-1.2c.4-.8 1.3-1.4 2.4-1.4 1.8 0 2.8 1.1 2.8 2.8 0 .4-.1.8-.2 1.2h-2.9c.1-.3.1-.6.1-.8 0-.6-.3-1-.9-1-.8 0-1.4.6-1.6 1.4l-.9 4.8h-2.8l1.9-9.6h2.8l-.7 3.8z"/>
  <path fill="currentColor" d="M72.8 4.8h2.8l-2.4 18.4h-2.8l2.4-18.4z"/>
</svg>
