<svg viewBox="0 0 100 32" xmlns="http://www.w3.org/2000/svg">
  <path fill="currentColor" d="M8.5 4h3.2v7.8c1.2-1.4 3-2.3 5.1-2.3 4.1 0 7.4 3.3 7.4 7.4v.2c0 4.1-3.3 7.4-7.4 7.4-2.1 0-3.9-.9-5.1-2.3v1.8H8.5V4zm8.3 16.9c2.3 0 4.1-1.8 4.1-4.1v-.2c0-2.3-1.8-4.1-4.1-4.1s-4.1 1.8-4.1 4.1v.2c0 2.3 1.8 4.1 4.1 4.1z"/>
  <path fill="currentColor" d="M30.2 9.5h3.2v2.1c.9-1.4 2.4-2.4 4.3-2.4 3.1 0 5.6 2.5 5.6 5.6v8.7h-3.2v-8.2c0-1.8-1.2-3-2.9-3s-3 1.2-3 3v8.2h-3.2V9.5h.2z"/>
  <path fill="currentColor" d="M49.3 9.2c4.4 0 7.9 3.5 7.9 7.9v.2c0 4.4-3.5 7.9-7.9 7.9s-7.9-3.5-7.9-7.9v-.2c0-4.4 3.5-7.9 7.9-7.9zm4.6 8.1v-.2c0-2.6-1.9-4.7-4.6-4.7s-4.6 2.1-4.6 4.7v.2c0 2.6 1.9 4.7 4.6 4.7s4.6-2.1 4.6-4.7z"/>
  <path fill="currentColor" d="M63.2 9.5h3.2v2.1c.9-1.4 2.4-2.4 4.3-2.4 3.1 0 5.6 2.5 5.6 5.6v8.7h-3.2v-8.2c0-1.8-1.2-3-2.9-3s-3 1.2-3 3v8.2h-3.2V9.5h.2z"/>
  <path fill="currentColor" d="M82.1 9.2c2.4 0 4.3.8 5.8 2.3l-2.1 2.4c-1.1-1.1-2.3-1.8-3.8-1.8-2.6 0-4.6 2.1-4.6 4.7v.2c0 2.6 2 4.7 4.6 4.7 1.6 0 2.8-.7 3.9-1.8l2.1 2.1c-1.5 1.7-3.5 2.6-6 2.6-4.4 0-7.9-3.5-7.9-7.9v-.2c0-4.4 3.5-7.9 7.9-7.9l.1-.4z"/>
  <path fill="currentColor" d="M92.8 4h3.2v19.5h-3.2V4z"/>
  <path fill="currentColor" d="M96.2 26.8c0 1.8 1.5 3.2 3.2 3.2s3.2-1.5 3.2-3.2-1.5-3.2-3.2-3.2-3.2 1.5-3.2 3.2z"/>
</svg>
