<svg viewBox="0 0 100 28" xmlns="http://www.w3.org/2000/svg">
  <path fill="currentColor" d="M13.9 2.3c-.1-.1-.3-.1-.5-.1-.2 0-4.4.1-4.4.1s-3.6-3.6-4-4c-.4-.4-1.2-.3-1.5-.2 0 0-.8.2-2.1.7-.4-1.2-1-2.7-1.8-2.7h-.1c-1.8 0-2.7 2.3-3 3.5-1.2.4-2 .6-2.1.7-.6.2-.6.2-.7.8L0 7.8l10.4 1.9s3.6-7.2 3.5-7.4zM8.9 5.6c-.8.2-1.6.5-2.5.8.2-.9.7-2.2 1.5-2.9.3-.2.6-.4 1-.4v2.5zm1.2-2.7c.2 0 .3.1.4.2-.4.1-.8.4-1.3.8-1.1.9-1.6 2.3-1.8 3.7l-2 .6c.4-2.1 1.8-4.8 4.7-5.3zM6.6 1.7c.3 0 .6.1.8.2-2.6.6-4.4 3-4.9 5.8l-1.6.5c.4-2.6 2.3-6.1 5.7-6.5z"/>
  <path fill="currentColor" d="M14.1 2.1s-.1 0-.2.1c-.1.1-3.6 7.1-3.6 7.1l2.5.5L14.1 2.1z"/>
  <path fill="currentColor" d="M3.5 8.8l7.3 1.4c0 0 1.6 11.8 1.6 11.9 0 .1-.1.2-.2.2l-5.2-1.9L3.5 8.8z"/>
  <path fill="currentColor" d="M25.3 16.8c-1.1-.6-1.8-1.1-1.8-1.8 0-.9.8-1.5 2.1-1.5 1.5 0 2.8.6 2.8.6l1-3.2s-1-.7-3.9-.7c-4.1 0-6.9 2.3-6.9 5.5 0 1.8 1.3 3.2 3 4.2 1.4.8 1.9 1.4 1.9 2.2 0 .8-.7 1.5-2 1.5-1.9 0-3.7-.9-3.7-.9l-1.1 3.3s1.7.9 4.2.9c4.2 0 7.2-2.1 7.2-5.7-.1-2-1.5-3.4-2.8-4.4z"/>
  <path fill="currentColor" d="M35.5 9.2c-2.1 0-3.7 1-5 2.4l-.1-1.9h-3.6v17.8h4.2v-6.1c1.2.8 2.6 1.2 4.1 1.2 4.1 0 8.1-3.1 8.1-9.1.1-5.1-3.1-8.3-7.7-8.3zm-1.2 12.4c-1.3 0-2.1-.5-2.7-1.1V15c.6-1 1.5-1.7 2.7-1.7 2.1 0 3.4 1.8 3.4 4.1s-1.4 4.2-3.4 4.2z"/>
  <path fill="currentColor" d="M56.8 9.2c-5.1 0-8.3 4.5-8.3 9.2 0 6.2 3.6 8.2 7.8 8.2 2.3 0 4.6-.6 6.1-1.6l-1.2-2.9c-1.2.7-2.8 1.1-4.3 1.1-2.2 0-4.1-1.1-4.3-3.8h10.5s.2-1.2.2-2c0-5.4-2.9-8.2-6.5-8.2zm-2.8 7.3c.2-2.1 1.3-3.6 2.8-3.6s2.5 1.5 2.5 3.6h-5.3z"/>
  <path fill="currentColor" d="M68.7 5.8h-4.2v21h4.2v-7.3c0-2.3 1.2-3.4 2.8-3.4.8 0 1.6.2 1.6.2V12s-.7-.2-1.3-.2c-1.5 0-2.8.9-3.1 2.4V5.8z"/>
  <path fill="currentColor" d="M78.9 26.8h4.2V9.5h-4.2v17.3zm2.1-19.8c1.4 0 2.5-1.1 2.5-2.4s-1.1-2.4-2.5-2.4-2.5 1.1-2.5 2.4 1.1 2.4 2.5 2.4z"/>
  <path fill="currentColor" d="M91.5 9.2c-1.6 0-3.1.7-4.1 1.8V9.5h-4.2v17.3h4.2v-9.4c0-1.9 1-3.2 2.6-3.2 1.7 0 2.4 1.1 2.4 3.1v9.5h4.2v-10.8c0-4.2-2.2-6.8-5.1-6.8z"/>
  <path fill="currentColor" d="M100 9.5h-2.4l-3.5 8.8-3.9-8.8h-4.6l6.2 12.8-3.2 7.1h4.2l9.2-19.9z"/>
</svg>
