<svg viewBox="0 0 80 32" xmlns="http://www.w3.org/2000/svg">
  <path fill="currentColor" d="M8.5 8.2c3.8 0 6.4 2.2 6.4 5.4 0 2.4-1.4 4.1-3.6 4.8 2.8.6 4.6 2.6 4.6 5.4 0 3.8-3.1 6.2-7.2 6.2H2.5V8.2h6zm-2.8 8.4h2.4c1.8 0 2.9-1 2.9-2.4s-1.1-2.4-2.9-2.4H5.7v4.8zm0 8.6h3c2.1 0 3.4-1.1 3.4-2.8s-1.3-2.8-3.4-2.8h-3v5.6z"/>
  <path fill="currentColor" d="M22.8 13.2c3.8 0 6.4 2.8 6.4 6.8v.3c0 4-2.6 6.8-6.4 6.8s-6.4-2.8-6.4-6.8v-.3c0-4 2.6-6.8 6.4-6.8zm3.2 7.1v-.3c0-2.1-1.3-3.6-3.2-3.6s-3.2 1.5-3.2 3.6v.3c0 2.1 1.3 3.6 3.2 3.6s3.2-1.5 3.2-3.6z"/>
  <path fill="currentColor" d="M35.2 13.5h3.2v2.4c.8-1.6 2.2-2.7 4.4-2.6v3.4c-.2 0-.4-.1-.6-.1-2 0-3.6 1.2-3.6 3.8v6.1h-3.4V13.5z"/>
  <path fill="currentColor" d="M48.5 13.5h3.2v1.8c.9-1.3 2.2-2.1 4-2.1 2.8 0 4.8 2.1 4.8 5.2v8.1h-3.2v-7.4c0-1.6-1-2.7-2.6-2.7s-2.8 1.1-2.8 2.7v7.4h-3.4V13.5z"/>
  <path fill="currentColor" d="M66.2 13.2c3.8 0 6.4 2.8 6.4 6.8v.3c0 4-2.6 6.8-6.4 6.8s-6.4-2.8-6.4-6.8v-.3c0-4 2.6-6.8 6.4-6.8zm3.2 7.1v-.3c0-2.1-1.3-3.6-3.2-3.6s-3.2 1.5-3.2 3.6v.3c0 2.1 1.3 3.6 3.2 3.6s3.2-1.5 3.2-3.6z"/>
</svg>
