<svg viewBox="0 0 80 32" xmlns="http://www.w3.org/2000/svg">
  <path fill="currentColor" d="M8.2 8.5h3.8l4.2 12.8L20.4 8.5h3.8l-6.4 15.8h-3.2L8.2 8.5z"/>
  <path fill="currentColor" d="M29.8 8.2c4.4 0 7.2 2.8 7.2 7.9v.3c0 5.1-2.8 7.9-7.2 7.9s-7.2-2.8-7.2-7.9v-.3c0-5.1 2.8-7.9 7.2-7.9zm3.8 8.2v-.3c0-2.5-1.5-4.4-3.8-4.4s-3.8 1.9-3.8 4.4v.3c0 2.5 1.5 4.4 3.8 4.4s3.8-1.9 3.8-4.4z"/>
  <path fill="currentColor" d="M42.5 8.5h3.4v2.8c.9-1.9 2.4-3.1 4.8-3v3.6c-.2-.1-.5-.1-.8-.1-2.2 0-3.9 1.4-3.9 4.2v7.3h-3.5V8.5z"/>
  <path fill="currentColor" d="M56.2 8.5h3.5v15.8h-3.5V8.5zm1.8-3.2c1.2 0 2.1.9 2.1 2.1s-.9 2.1-2.1 2.1-2.1-.9-2.1-2.1.9-2.1 2.1-2.1z"/>
  <path fill="currentColor" d="M66.8 8.5h3.5v15.8h-3.5V22c-.9 1.4-2.4 2.3-4.4 2.3-3.2 0-5.8-2.4-5.8-5.8V8.5h3.5v9.5c0 1.9 1.2 3.2 3 3.2s3.2-1.3 3.2-3.2V8.5h.5z"/>
  <path fill="currentColor" d="M72.8 20.8h3.2c.2 1.2 1.1 1.9 2.6 1.9 1.2 0 2-.5 2-1.3 0-.7-.5-1.1-1.8-1.4l-2.2-.5c-2.4-.5-3.6-1.8-3.6-3.8 0-2.5 2.2-4.3 5.2-4.3 3.4 0 5.4 1.8 5.6 4.5h-3.2c-.1-1.1-.9-1.8-2.4-1.8-1.1 0-1.8.5-1.8 1.2 0 .6.4 1 1.6 1.3l2.2.5c2.6.6 3.8 1.9 3.8 4 0 2.6-2.2 4.4-5.4 4.4-3.6 0-5.7-1.9-5.8-4.7z"/>
</svg>
